<svg xmlns="http://www.w3.org/2000/svg" viewBox="0 0 154 151.49"><defs><style>.cls-1{fill:#fff;}</style></defs><g id="레이어_2" data-name="레이어 2"><g id="레이어_1-2" data-name="레이어 1"><path class="cls-1" d="M50.7,28.13s-31.92,6.5-42.34,34.6S-5.18,97.35,13.44,122A76.46,76.46,0,0,1,19,135.36c1,2.74,6.05,2.17,6.05,2.17s-3.74,0-4.6-1.05-7-17-8.69-18.07-15.59-15.8-8.82-38.27S17.49,35.81,50.7,28.13Z"/><path class="cls-1" d="M51.67,27.72s3.59-1.27,5-3.08a8,8,0,0,1,10.45-1.3,8.33,8.33,0,0,0-5.77-1.14C58.43,22.9,53.88,27.92,51.67,27.72Z"/><path class="cls-1" d="M71.2,25.19s8.33,2.21,9.17,5.29l-1.3-1.24"/><path class="cls-1" d="M80.73,30.77a22.91,22.91,0,0,1,.56,4.43c-.09,1.47.86,1.41,1.13,1.88s.54.72.42,1.27A13.25,13.25,0,0,0,83,40.08a2.54,2.54,0,0,0,0,1c.1.28.35.41.54.86s7.62,10.86,7.8,12.36l-2,.25s-3-7.88-3.56-8.47-3.63-4.64-3.38-5.29.47-2.47,0-3S80,30.74,80,30"/><path class="cls-1" d="M24.41,137.39S35.69,136.12,37,136s18.64-.7,27.38-6.25c0,0-9.89,6.58-20.61,6.42s-16.33,2.26-20.32,1.43"/><path class="cls-1" d="M69.74,24.7l-1.24-.78c-.42-.26-.53-.32-.87-.28a1.36,1.36,0,0,1-.52,0s-.5-.55.14-.67S73,25,81.3.14c0,0,.25-.32,1,0S74.69,15.64,74.52,17c0,0-6.51,8.79-1,8.24,0,0,.87.43.91.79s.9.64,1.07.93"/><path class="cls-1" d="M74,25.72s-.87-.76.38-2.64S82.57,7.27,82.84,6.53s.91-.72,1-.29-.34-1.58-1.33.68S72.81,24.15,73.6,25.5"/><path class="cls-1" d="M83.18.59s1.76.9,1.51,2.29-.6,2.15-.13,2.67a4.07,4.07,0,0,1,0-3.12A2.46,2.46,0,0,0,83.18.59Z"/><path class="cls-1" d="M104.94,54.05s26.25,3.71,38.68,24.57S139.6,58.94,104.94,54.05Z"/><path class="cls-1" d="M148.26,84.87s19.11,36.25-12.45,56.09C135.81,141,165.23,122.86,148.26,84.87Z"/><path class="cls-1" d="M106,54.51S77.37,46.41,68.4,76c0,0,7.69-27.4,39.58-21.26"/><path class="cls-1" d="M68.61,77s-7.6,62.23,67.2,64c0,0-35.75,1-54.35-22S68.61,77,68.61,77Z"/><path class="cls-1" d="M74.59,63.46s-29.93,19-10.67,65.66C63.92,129.12,44.21,85,74.59,63.46Z"/><path class="cls-1" d="M64.4,129.76S88.32,170,135.81,141C135.81,141,96.6,170.54,64.4,129.76Z"/><path class="cls-1" d="M84,6.65s5.84,3.93,4.75,6.82S91,11.09,84,6.65Z"/><path class="cls-1" d="M88.05,15.06s-7.66,5.38-3.53,19.17,7.7,19.83,7.7,19.83l1.31-.18s-1.33.4-1.59-.83-9-19.55-8.44-25.73S84.69,19,88.05,15.06Z"/><path class="cls-1" d="M85.39,5.82a16.5,16.5,0,0,1,4.16,5c1.27,2.74,4,2.4,5.21,3.58s-4.68-1.72-5.31-4.37"/><path class="cls-1" d="M96.31,15.2s25.58,7.25,25.37,44.29c0,0-.45-17.32-4.75-23.45S114.53,24.43,96.31,15.2Z"/><path class="cls-1" d="M93,17.14s12.25,12.07,16.49,36C109.44,53.12,103.34,25.31,93,17.14Z"/><path class="cls-1" d="M89.75,62.51s.36-2.54,3.8-2.84,12.73-.19,13.81,1S94.74,57.12,89.75,62.51Z"/><path class="cls-1" d="M89.72,62.88S102,82.91,110.26,90C111.57,90.85,89.41,66.32,89.72,62.88Z"/><path class="cls-1" d="M106.61,60.8s4.09,25.1,4.06,27.26-2.52-25.91-3.31-27.37"/><path class="cls-1" d="M91.61,69.93S87,61.22,83.48,65s-8.74,8.63-6.43,12.54c2.76,1.61,25.89,12.27,25.89,12.27S77.67,77.91,77.52,77.1,75.24,75,78.91,70.48s6-6.4,6.72-6.17,5.25,4.75,6,7"/><path class="cls-1" d="M75.82,80s-6,8.54.93,17.18c0,0,13.91.14,30.9-1.19,0,0,.19-1.53.69-1.58,0,0-.55.22-.77,1.47S78,97.19,77.05,96.49a8.79,8.79,0,0,1-3.44-8c.61-4.51.92-10.1,7.33-7.16"/><path class="cls-1" d="M83.32,82.31s22.43,10,23.72,11.26"/><path class="cls-1" d="M78.21,101s-.15,11.18,13,18.38C97.13,115.05,105,105.83,109.06,98c0,0-3.46,6-4.89,6.86S94.33,119.3,91.29,119s-14.11-9.89-11.7-18.76c1.47-1.3,27.69-3.61,28.23-3.46s-26.28,2.49-27.77,3.46"/><path class="cls-1" d="M100.73,114.28c-1,.56-2.74,4.25-4.35,7s4.08,6.26,6.75,8.84,15.66,3.06,16.38,2.86-.29-2.77-.29-2.77c1.11,2.58.38,3,.38,3-17.44,1.89-24.82-9.68-24.42-11.45S111,99.63,111,99.63"/><path class="cls-1" d="M110.94,99.71s.53-.71,1.22.82c0,0-.61-1.45-1.22-.77"/><path class="cls-1" d="M112.37,100.69s6.47,28.71,7,29.21"/><path class="cls-1" d="M113.75,91.32s17.52-17.58,17.87-18.09-1.94-3.09-3.17-3.9,3,2.86,2.86,3.48-12.13,12.92-12.13,12.92"/><path class="cls-1" d="M127,68.3S113.21,59,110,61.75c-1.89,5.89,1.72,25.8,2.62,28.47S107.74,67.77,110,63.1,121.31,65.44,127,68.3Z"/><path class="cls-1" d="M116.77,91.76s15-17.83,16.78-16.6,6.89,5.8,8.54,9.86-6-10.48-8.77-9.74-14.71,14.49-14.71,14.49"/><path class="cls-1" d="M145.28,91.53s.78,4.31-.53,5.44-25.85-1.69-25.85-1.69-3.07-.69-2.43-2.6a2.23,2.23,0,0,0,1.75,2.13c1.83.6,24.15,2.5,26,2.16s.6-7,.09-8"/><path class="cls-1" d="M119.3,96.94s25.31,1.74,26.15,2.53,3.18,4.41,2.57,10.89-4.28,12.54-6.5,10.52,3,2.81,4.54-4.79,3.46-5.33-.45-16"/><path class="cls-1" d="M141.05,120.42S117.75,100,117.9,99.63"/><path class="cls-1" d="M121,131.65s.19,3.93,5.2,3.29,9-.88,15.17-9.31c0,0-7.75,10.69-14.57,8.85s-5.22-1.39-6-3.59"/><path class="cls-1" d="M113.45,99.89l5.32,23.62s.7.56.74.91"/><path class="cls-1" d="M117.42,100.88s24.27,21.53,24.18,22.23.14,1.15,0,1.24.1-1.18-.19-1.46"/></g></g></svg>