<svg xmlns="http://www.w3.org/2000/svg" viewBox="0 0 148.2 135.05"><defs><style>.cls-1{fill:#fff;}</style></defs><g id="레이어_2" data-name="레이어 2"><g id="레이어_1-2" data-name="레이어 1"><path class="cls-1" d="M77.9,57.74a47.61,47.61,0,0,1,9.93,14.59,45.62,45.62,0,0,1,3.82,17.33,43.84,43.84,0,0,1-3.25,17.58,45,45,0,0,1-10,14.86,45.58,45.58,0,0,1-15,9.69c-1.39.53-2.83,1-4.23,1.44s-2.9.67-4.35,1l-4.42.62-4.45.19a47.46,47.46,0,0,1-17.37-3.45,46.74,46.74,0,0,1-14.86-9.7A45.23,45.23,0,0,1,0,89.66,46.22,46.22,0,0,1,3.41,72a45.62,45.62,0,0,1,25-24.86A44.69,44.69,0,0,1,46,44,45.83,45.83,0,0,1,63.32,47.8,47.54,47.54,0,0,1,77.9,57.74Zm-.14.15a43.06,43.06,0,0,0-14.65-9.58,44.55,44.55,0,0,0-17.13-3A45.67,45.67,0,0,0,14.86,58.54a44.73,44.73,0,0,0-.34,62.59A43.56,43.56,0,0,0,46,134.36a44.17,44.17,0,0,0,31.27-13.43A46.32,46.32,0,0,0,90.4,89.66a44.57,44.57,0,0,0-3.05-17.13A43,43,0,0,0,77.76,57.89Z"/><path class="cls-1" d="M70.6,51.9S83.36,33.47,99.75,33.36s19.87,3.43,24.83,5.92c0,0-17.8-9.55-32.58-4.24S70.83,51.36,70.54,52.14"/><path class="cls-1" d="M125.52,39.68s25.87,11.62,22.35,45.2-43.43,32-59.9,23.41l.58-2.66s.43,7.82,27.13,7.21c18.19-3.28,27.86-9.23,30.92-22.79S148.21,54,125.52,39.68Z"/><path class="cls-1" d="M116.68,53.15s-2.49,5.73-1.41,7.47a26.64,26.64,0,0,0,2.37,3.2l2.48,2.7,3.45.5s3.89-1.3,4.1-2.09-.38-5.07-.22-5.52-.12-.88-.59-1.38-1.58-1.53-1.58-1.53-2-4.53-5.11-4.61"/><path class="cls-1" d="M25.13,80.69l4.05,5.21s-1-1.86.47.43a8.59,8.59,0,0,0,2.64,2.89l-4.17.46-3.66-.91-2.2-.46-.43-.42-.37-3.43a15,15,0,0,0,1.45-1.54A27.26,27.26,0,0,1,25.13,80.69Z"/><path class="cls-1" d="M32.84,90.09a15.63,15.63,0,0,1,3.35,1.28c.72.57.28,1.15.89,1.7s1.72.15,2.38.8.68.78,1.59,1-.22-.37.91.66,2.51,1.08,2.13.21a2.12,2.12,0,0,1,0-1.65,6.64,6.64,0,0,0,1.5-1.61c.9-1.24,1.28-1.52,2.29-1.58a12.18,12.18,0,0,1,2.83,0c1,.16.69-.09,1.06-.35A16.48,16.48,0,0,0,53,89.31a15.92,15.92,0,0,1-2.58-1.41c-.37-.39-.94-1.07-1.46-.91s-3.34-.1-5-.08-5.74-.34-6.39.08-.16,1.57-.61,1.73"/><path class="cls-1" d="M52.14,86.85s-1.21-2.87-.07-2.8A4.76,4.76,0,0,0,54.64,83a4.34,4.34,0,0,0,1.49-1.42,5.8,5.8,0,0,0,1-2.19s-2.24-1,.71-1.62a8.93,8.93,0,0,1,5.47.73l.1.7s.27,0-.75,1-2.21,1-1.64,2.59.89.71.89.71l-3.36.71s-5.74.44-5.39.35S53.91,84.81,52.14,86.85Z"/><path class="cls-1" d="M30.34,67.34l.93-2.65L30.81,64s.13-4.34,1.33-4.76,1.22-1.58,1.67-1.67.54-.12,1.89-.5,2.87-.86,2.87-.86l1.5,0,2,1.25a1.21,1.21,0,0,0,.64.26c.31,0,1.09.3,1.71,0s1.57.59,1.57.59a1.38,1.38,0,0,1,.78.62c.19.42.11.39,1.16.72a2,2,0,0,1,1.26,2c0,.61-.25,1.11,0,1.42s.74-.11,1.74.31S34.27,60.94,30.34,67.34Z"/><path class="cls-1" d="M48.91,63.31s.33-2.78,1.06-2.85a1.54,1.54,0,0,0,.94-.28l.21-.54c.57-.82,2.79-.55,2.79-.55l1.7.55s.81-.06,1,.14a2.84,2.84,0,0,0,.94.34s.2-.32,1-.35.71-.65,1-.26a8,8,0,0,1,.68,1.29s.41,1.27.2,1.5.22.53.22.53a2.84,2.84,0,0,0,.57.52c.27.14.26-.3.27.14A5.74,5.74,0,0,1,61.07,65l-1,2.1-.21.28-.61.33s-.61-.2-.48,1.91a6,6,0,0,0,.85,3.06,2,2,0,0,1,.45.68c.09.32.19-.51.5,1.15s-.26,2.18-.26,2.18-.94-.62-.93,0a9.34,9.34,0,0,0-.11,1.83C59.37,79.54,59.08,60.37,48.91,63.31Z"/><path class="cls-1" d="M11.39,60.67s-5.28-6.44-5.6-7.38a15.06,15.06,0,0,0-1.36-2.47L3.8,49.56s.85,1-.09-.48a13.48,13.48,0,0,0-3-3s.42.8.33-.81a7.92,7.92,0,0,0-.62-2.72L0,41.39V39.74s1.53-2,.82-3.08S-1,46.48,11.39,60.67Z"/><path class="cls-1" d="M.86,36.66s5.06-4.92,6.71-5.11,5.4-2.91,7.58-2.18,7.69-2.62,8.76-2.66,4.1-.06,4.1-.06.17,1.45,2.41,1.26S33.1,28,34,27.56s2.72.34,3.95.11a5.31,5.31,0,0,1,1.82-.11l2.72,1.63a7.31,7.31,0,0,1,4.74,1.09c2.17,1.47,2.6,1.09,3,1.65s4,1.9,4,1.9.05.11.77.36,3.37.85,4.78,2.71,2.67,1.16,4.41,3.77a56.35,56.35,0,0,1,3.41,6.15s2.17,1.57,2.6,3.33a6.87,6.87,0,0,0,1.16,2.6s-11.1-17.5-14.41-16.91-6.26-3.77-11.7-6S15.88,25.06.86,36.66Z"/><path class="cls-1" d="M47.76,31l1.15-4.79a3.87,3.87,0,0,1,.69-2.33A25.16,25.16,0,0,0,51.47,21l-.81-1.41-.16-.94s.2.5.52-.44l.32-.95.45-1.3-.55-.68a3.81,3.81,0,0,1,1.45-1.09l1.16-.59,1-2.42L58,8.39S58,8,57.05,7.17a8.28,8.28,0,0,1-1.27-1.44s1.39-1.43,2.08-1.38S57.61,4,59,3.49s3-1.39,3-1.39S48.24,22,47.76,31Z"/><path class="cls-1" d="M62.05,2.1S65.54-.8,66.71.21l1.17,1s-.08-.16,1-.44S70.39.42,70.39.42s1.73,0,1.84.87a11.66,11.66,0,0,0,.37,1.62l1.2,1s.34.19.75.46a5,5,0,0,0,.87.45s-3.17-1.75-4.37-3.7C71.05,1.12,66-1.29,62.05,2.1Z"/><path class="cls-1" d="M76.05,5.24s3.37,3.69,3.73,4.06,1.48,1.31,1.48,1.31a5.13,5.13,0,0,1,2,.94c.45.57.77-.41,1.56,1.89s.2,1.15.8,2.29,1.41,1.17,1.41,1.17.45-.32,1.38,1.09,3.12,3.17,3.49,3.9.43.45.5,2.11a12.73,12.73,0,0,0,.27,2.8,15.08,15.08,0,0,1,.62,1.81c.53,1.8.18,1.46.53,1.8a5.94,5.94,0,0,1,.77,4c-.18,2.22-2.58-10.17-3.41-11.07a7.48,7.48,0,0,1-1.3-2.47l-.93-1s-.53-.78-1-.91-3.87-5.79-4.51-6.25S76.36,7.21,76.05,5.24Z"/><path class="cls-1" d="M27.1,75.64l-.44,2.08s-1.9,1.7-1.53,3a6.91,6.91,0,0,0,1,2.11l1.36-1.91-.32-1s.09-.48.16-1.24a25.6,25.6,0,0,1,.69-2.8,2.37,2.37,0,0,1-.15-2.15c.83-3.08,4.45-7.75,4.45-7.75l-.55.21a6.36,6.36,0,0,1-1.44,1.19c-1,.67-1.08.3-1.54,0s-.4-.47-.72-1A6.72,6.72,0,0,1,27.56,65s-1.33.32-1.87.43a9.45,9.45,0,0,0-2.28.74,11.26,11.26,0,0,1-2.87.75s-2,.23-1.38,1.73.93,1.13.93,1.13L20,71.23a6.14,6.14,0,0,0-.85,1.94c-.41,1.38.46.88.71,1.38s.11.73.54.83-.22,1-.22,1l0,.79.79,0c.79,0,6.6-1.41,6.6-1.41"/><path class="cls-1" d="M70.16,50.15s0-1.69-.06-2.86a15.66,15.66,0,0,0-.41-2.38V43.67l.48-3.31-.83-3.67.18-3,.13-2.49-.36-.59-3,2.86L63,36.07a9.61,9.61,0,0,0-1.49,1.54c-.31.53-.87.23-.77.55"/><path class="cls-1" d="M67.66,5l.6,2a2.77,2.77,0,0,1,.25,1.34c-.12.47-.32,1.27-.46,2"/><path class="cls-1" d="M70.75,31.62c-.15-.51-.28-3.65-.28-3.65l-.35-1.72V25l.22-.83c0-.22.52.18.14-.65s-.35-.73-.36-1.33a1.77,1.77,0,0,0-.36-1s-.37-.71-.09-1.11.65-.27.46-.55.1-.88-.12-.87a3.59,3.59,0,0,1-.49,0S69,19,69,19.4s-.12,2.39-.12,2.39,1.61.92,1.59,4.9"/><path class="cls-1" d="M28.63,47.43l-2.5-.73a4.9,4.9,0,0,1-1.55-.55,8.63,8.63,0,0,0-1.76-.64,10.05,10.05,0,0,1-1.89-.74A11.78,11.78,0,0,1,19.72,44a2.21,2.21,0,0,0-1-.1c-.29.13,0,.64,0,.64s1.39.45,1.67.6a8,8,0,0,1,1.55.66,14.59,14.59,0,0,1,1.82,1.08,2.73,2.73,0,0,0,1.63.69c.34-.08.39.35.39.35s-.71.4-.76.64"/><path class="cls-1" d="M16.43,42.62a2.06,2.06,0,0,0-.7-.43,3.48,3.48,0,0,1-.8-.11,5.3,5.3,0,0,1-.81-.43s-.11.09-.43-.06a.68.68,0,0,0-.56-.05l-.1.14,1.05.51"/></g></g></svg>