<svg xmlns="http://www.w3.org/2000/svg" viewBox="0 0 175.97 127.2"><defs><style>.cls-1{fill:#fff;}</style></defs><g id="레이어_2" data-name="레이어 2"><g id="레이어_1-2" data-name="레이어 1"><path class="cls-1" d="M47.16,70.86s-2.63,3.25-2.82,5.71a5.92,5.92,0,0,0,2.52,4.94c.71.35,2.45,1,3.14,0s1.19-1.85.92-2.61S49.22,75.43,47.16,70.86Z"/><path class="cls-1" d="M53,68.92a29.28,29.28,0,0,1,3.79,3.82c1,1.44,2,4.51,3.72,3.19s1.19-3.55.65-5.09S55.86,67.27,53,68.92Z"/><path class="cls-1" d="M36.6,56.23s-16.83-15.1-18-16.77S14.05,36,16.14,33c2.59-.4,3-1.79,4.94,2.6s7.16,11.84,16.09,17.51c0,0,4.63-1.8,4.68-2.43s.57,3.24.65,3.8a13.32,13.32,0,0,1,.4,2.15c0,.73-.22,0-.27,1.61a7.24,7.24,0,0,1-.21,2l.46,1.08a32.07,32.07,0,0,0-3.29-2.43C38.8,58.42,36.91,57.14,36.6,56.23Z"/><path class="cls-1" d="M48.24,67.85s9.36,12.65,10,14.43-2.65-3.22-2.65-3.22"/><path class="cls-1" d="M64.62,93.38S62.28,90,62.38,89.32s.14-.62.85-.27a20.17,20.17,0,0,1,2.68,2.35,6,6,0,0,1,1.92,1.52c.72.94,0,1.16,2.06,2.21s3,1.63,4,2.07l3,1.25s1.23.89.2.94-1.19,1.1-1.34,1.87-.48,3.14-.48,3.14l0,1-1.44.69s-2.15.12-2.93.2a3.57,3.57,0,0,1-1.69-.37L67.76,105"/><path class="cls-1" d="M37,55.47s-5.64-1.67-7.17-2.24S21,49,13.7,51.21s-12,10-12,11.69l.15.46S1.7,60.2,7.29,55.59s4.88-4.52,14.42-4.35c4.44,1.36,14.2,5.07,16.18,5.24"/><path class="cls-1" d="M1.75,62.47s-3.49,10.92-.62,17.89c0,0,3.35,15,12.51,23.32,9.18,9.53,12,13,17.12,15.68l-6.31-7.07S8.12,98.21,7,92.51s-8.81-9.38-5.34-26.3"/><path class="cls-1" d="M6.62,91s8.64,13.28,19.5,19.54S38.81,119,51.2,119.34c3.3-.3,15.34.38,16.07-13.89l.9-1.92,5.3-2.61,3.71-2.18a15.43,15.43,0,0,0,6.6,2.68c4,.65,11.51-.54,14.41-4.26,0,0-.85,3.24-.6,3.26S69.41,127.31,52.21,127.2,18.42,108.32,16,106,7.11,95,7.11,95L5.75,90.77"/><path class="cls-1" d="M41.72,51a5.57,5.57,0,0,0,.44-1.94,13,13,0,0,1,6.49-14C56.81,30.55,68.5,32.49,71.74,34s-2-.45-5.39-.76-1.81-1-10.62-.22-11.79,7.25-11.79,7.25"/><path class="cls-1" d="M72.57,34.57s11.32,4.21,21.71,20,8.7,37.67,3.91,42.54c0,0,4.73-6.23,4.31-18.38S94,52.42,90.6,49s-6.28-8.89-18.09-14.63"/><path class="cls-1" d="M82.87,40.85s-.38-23.12,35.19-26.11c0,0-11.81,1.53-15.42,3.36s-17.86,5.74-18.9,23.55"/><path class="cls-1" d="M123.78,26.61S115.09,6.69,109.6,1.75c0,0,.47-.93,1.29-.88s.78-2.51,5.66,7.41A114,114,0,0,1,123.78,26.61Z"/><path class="cls-1" d="M112.1.33s1.15-.75,1.78,0,11.34,22.47,11.34,23.82a3.86,3.86,0,0,1-.73,2.26"/><path class="cls-1" d="M121.24,14.17S152.43,11.52,165.06,27,180,62,168.6,83.6c0,0,12.35-25.32,4.73-41.5S162.4,15,121.24,14.17Z"/><path class="cls-1" d="M98.19,97.16s15.56,11,29.24,10.44,26.91-1.44,40.7-23.55c0,0-8.14,20-33.29,24.56s-36.15-7.54-37.25-8.19-1-1.09-1-1.09"/><path class="cls-1" d="M117,25.14a22.27,22.27,0,0,0,6.91,2.21c3.39.36,10.14.29,11.06.26a4,4,0,0,0,2-.47c.23-.21,1.43-.73.75-1.52s-8.4,3.62-12.54.1A43.52,43.52,0,0,1,117,25.14Z"/><path class="cls-1" d="M165.29,67.65s-2.74,2.8-3.7,1,2-12.19-.71-22.85c0,0,2,3.46,1.31,16.07S164.47,67.61,165.29,67.65Z"/></g></g></svg>