<svg xmlns="http://www.w3.org/2000/svg" viewBox="0 0 147.94 188.29"><defs><style>.cls-1{fill:#fff;}</style></defs><g id="레이어_2" data-name="레이어 2"><g id="레이어_1-2" data-name="레이어 1"><path class="cls-1" d="M54,180.35a8.85,8.85,0,0,0,3.49,1.06c1.37-.08,3.32-.38,3.32-.38l1.75-.62a20,20,0,0,0,2.13.41c.8.08,2.72,0,2.72,0s.81-.17.78,0,.65.06,1.17-.08.66-.24.56-.4c-.23-.39-1.12,2.09-1.57,2.27s-.54.93-.54.93,1.12-.72,1.2,0,1.29.35.3,1-2.47,1.76-2.78,2.66S66,188,66,188l-2.93.25a9.52,9.52,0,0,1-2.92-.21,10.45,10.45,0,0,0-2.84-.33,3.65,3.65,0,0,1-2.53-.37,5.82,5.82,0,0,1-1.27-1.65,15.4,15.4,0,0,0-1-2.41,9.37,9.37,0,0,0-1.14-1.5c-.49-.66-.35-1.24.09-1.45a6.35,6.35,0,0,1,1.54-.45,1,1,0,0,1,1,.31,4.22,4.22,0,0,0,1.47.52c.36.07,1.57.12,1.91.13s1.44.16,1.73.16,1.08-.45,1.41-.42a2.48,2.48,0,0,1,2.48.47c1.41,1-.1,1.31-1.35,1.91s-5.1.4-5.1.4l-3.27-1.78"/><path class="cls-1" d="M65.51,181.41s2.27-1.59,2.34-2.41-1-.28-1.48-.39-1.49,0-2.62-.09a15.8,15.8,0,0,1-2.75-.65c-.51-.17,2.87,1,3,1s1,0,1.35,0H67s.21-.11,0,.21-.31.22-.49.68-1.17,1-1.32,1.09"/><path class="cls-1" d="M54.82,180.73s-4.36-4.76-4.6-5.33-11.62-15-18.76-33.63c-9.84-20-25.66-54.7-27.81-56.1-1.26-1-.66-.91-1.07-2.09a38.08,38.08,0,0,0,3.27,6.64c1.45,2,14.89,29.85,14.89,29.85s18.72,40,22,44.88"/><path class="cls-1" d="M2.5,83.33s5.32,5,19.75,27.25,16.85,25.11,20.67,34.31c0,0-16-27.21-16.61-27.65S8.1,88.75,4.61,86"/><path class="cls-1" d="M60.76,177.55a30.27,30.27,0,0,1-14.71-11.49S51.62,174.74,60.76,177.55Z"/><path class="cls-1" d="M52.32,168s.08,3.88.46,4.32.39,1.7,1.95,2.36,7,2.86,7.9,2.93.76-.17.91-.49,0-.41.31-.59a7.39,7.39,0,0,1,1-.55c.59-.29,1.84-.85,2.36-1.13s2-1.15,2-1.15A12.89,12.89,0,0,0,71,172.1c.23-.4-.61-.75-.84-.47a23.4,23.4,0,0,1-3.81,1.78,10.67,10.67,0,0,1-3.8,1c-2.2.2-2.46.86-4,.31s-1.89-.35-2.64-1.57S53,170,52.32,168Z"/><path class="cls-1" d="M68.05,167.26s-5.22,7.3-6,7.93,7.32-2.85,7.32-2.85,14.5-8.6,20-25.29C96.05,131.26,100,120.48,100,120s-11.5,24.31-15.39,29.33-4.61,9.95-8.22,12.21c0,0,9.72-15,10.42-19.1s1.3-6.07,1.51-7.07-9.9,22.31-21.94,30.88A2.5,2.5,0,0,0,68.05,167.26Z"/><path class="cls-1" d="M52.34,168.68S44.48,149.51,43.12,143s-4.54-21.71-8-53.6C31,69.29,23.93,56.22,20,52.86c-.09-.39,0-.42.43-.22s-.62-.79-.6.2,3.05,3.68,4.9,7.27S36.48,86.9,37.43,110.44C40.55,133,47.62,161.77,52.34,168.68Z"/><path class="cls-1" d="M21,53s20.49,34,30.51,72.11,9.37,34.49,15.3,41.57a54.72,54.72,0,0,1-6.45-14.32c-2.54-8.66-8.29-26.28-8.86-28.75s-14.42-47.22-17-51.21S26.55,56.05,21,53Z"/><path class="cls-1" d="M55.89,137.94a2.73,2.73,0,0,0,1.39,1.32c1,.42-.44,1.39-.4,2"/><path class="cls-1" d="M67.83,178.77a3.91,3.91,0,0,0,2.66-2.5,9.43,9.43,0,0,1,3.11-3.89"/><path class="cls-1" d="M74.18,172s12.82-9.23,20-29.85c7.59-19.61,6.6-17.87,10-25.78.93-2.6,8.74-37.76,6.75-50.43,0,0-.61,26.34-5.14,44.34S89.14,163,74.18,172Z"/><path class="cls-1" d="M89.37,132.43s.68-2.75,1.1-2.81.73-1.5.83-2.07,0-.76.06-1.06a1.48,1.48,0,0,1,.49-1c.39-.29.58-.22.38-.57s-.54-.78-.54-.78l.89-.26s.85.21,1.21-1.29-4.35,10.37-4.72,10.88"/><path class="cls-1" d="M93.69,122.25s1-3,1.47-4,.68-1.63,1.42-3.07a32.07,32.07,0,0,1,1.77-3.2c.67-1,5.44-12.24,6.18-16.6"/><path class="cls-1" d="M104.88,94.73s4.77-14.34,5.55-28.74c0,0-1.86,16.74-2.66,19.23"/><path class="cls-1" d="M105.27,113.12s2.76-4.8,4.11-6.1,22-33.79,28.93-38.4c5-5.65,7.45-7.51,9.63-9.8,0,0-19.78,21.71-20.24,22.76"/><path class="cls-1" d="M108,98.82s0,3,.54,2,10.27-12,11.11-14.75c0,0-10.33,13.89-11.15,14.4"/><path class="cls-1" d="M119.62,86s24.78-28.16,28.32-27.21c0,0-1.18-1.27-3.76.89S120.33,84.21,119.62,86Z"/><path class="cls-1" d="M54.46,133.52s.83,1,1.49,1.06-.72,2.19-.66,2.83"/><path class="cls-1" d="M52.77,128.34s.49.95.85,1-.1,1.4-.1,1.65"/><path class="cls-1" d="M51.36,124.09a2.56,2.56,0,0,1,1,2.78"/><path class="cls-1" d="M49.67,117.74s1,.94,1.2.94-1,.59-.49,1.53"/><path class="cls-1" d="M42.28,138.12S32.53,112.65,30.1,108.4"/><path class="cls-1" d="M30.48,109.34S4.32,59.62.43,61.3c0,0,3.26,2,6.72,7.64"/><path class="cls-1" d="M.51,61.35s-1.52-1.57.69-1.2,4.56,2.61,5.2,3.38S1.52,58.42.63,61"/><polyline class="cls-1" points="7.5 64.34 17.76 76.62 28.36 91.88 17.99 77.62"/><path class="cls-1" d="M28.33,91.7l8.76,13.71.34,5s-2.06-7.84-4.66-11.56"/><path class="cls-1" d="M57.57,143.73a6.59,6.59,0,0,1,1.12,1.07c.43.56-.15,1.83,0,2.51"/><polyline class="cls-1" points="58.92 148.57 59.82 148.97 59.72 150.81"/><path class="cls-1" d="M61.47,156.41a8.33,8.33,0,0,0,1.93-2.31,4.9,4.9,0,0,1,.95-2c.69-1,.68-.24,1.64-1.73a13.68,13.68,0,0,0,1.55-3.51A7.09,7.09,0,0,0,68,144.9"/><path class="cls-1" d="M68.63,144.4a5.09,5.09,0,0,1,.51-1.28l.41-1.11-.06-1,.06-.77s-.25-.15-.24-.28.16-.71.4-.81a1.09,1.09,0,0,0,.42-.46l-.32,2.23s-.66,3.54-1.35,4.06"/><path class="cls-1" d="M81.13,150.49S87.54,120.75,87,114.6s-.52-38.19-2.72-51.41c-.18-3.92,2.32,52.22,2.32,52.22"/><path class="cls-1" d="M84.76,67.25S83.17,55.19,84,49.34,88.7,13,96.68,8.86a13.08,13.08,0,0,0-6,8.45c-1.53,6.22-8.27,43.3-6.45,51.12"/><path class="cls-1" d="M60.46,124.83l-1.08-.93-2.06.17-.92.59s-1.19,1.83-.92,2.07-.17-.08.29,1.18a26.91,26.91,0,0,1,.76,2.94,2.17,2.17,0,0,1,.17,1.34c-.12.66-.34.18-.08,1.21a13.39,13.39,0,0,1,.32,1.89s-.06-.32.05.59-.27,1-.27,1a2.94,2.94,0,0,1-.29.75c-.2.35-.53-.13-.2.35a3.5,3.5,0,0,0,1.09.85s1.67.67,1.57,1.36.17.76-.25,1.37l-.42.6s-.72-.51-.35.64-.44-.33.36,1.15,1.47,1.5,1.49,1.78.19.29.09.47-.22.13-.49.65l-.28.52s.11-.32.44.62,0,.62.58,1a4.24,4.24,0,0,1,.73.45s-.33.66-.48.92l-.16.25s.76,1.53.94,2a2.2,2.2,0,0,1,.26,1.15c0,.68-.07.43,0,.68s.4,1.31.4,1.31l4.83-7.28s1.63-8.38,1.79-8.87,0-.06.47-1.4,0-.68.39-1.87a21.2,21.2,0,0,1,.61-2.53c.43-1.15.54-2.06,1-3.62s.16-2.36.44-3.11-.78.36.23-1.79a11,11,0,0,0,1.34-3.91c.28-1.65.1-2.5.23-3.19s.68-2.34-.31.43-1.76,3.07-2,5.6-.44,4.77-.44,4.77-1.07,2.42-1.89,4.38a20.2,20.2,0,0,1-1.57,3.1,9.88,9.88,0,0,1-.7,2.49c-.49,1-.94,1.39-1.18,2a16.18,16.18,0,0,0,1.45-3.62,6.86,6.86,0,0,0,0-1.36s.28-3.07.38-3.58-.13-.93,0-2.17,2.63-15.31,2.73-15.74a4.4,4.4,0,0,1,.79-1.44c.47-.69,1.55-1.52,1.41-1.84s-.92-.06-1.78,2.11A7.58,7.58,0,0,1,68,116.36a1,1,0,0,0-1.34.58c-.3,1,0-2.14-.56,2.09s-.65,5-.65,5.2.37.38,0,1.84-1.08,4.71-1.08,4.71l.1,2.56.19,1.68a11.35,11.35,0,0,1-.64,1.29c-.2.28-1.16,1.25-1.44,1.63"/><path class="cls-1" d="M48.77,115.39s-1.13-20.61-1.45-21.74.47-2.22.07-3.83,0-.94-.26-2.49A10.56,10.56,0,0,1,46.87,84c.12-1,.33-2.35.33-2.35s0-2.33.06-3.67a22,22,0,0,0,0-2.76s-.33-1.61-.13-1.82-.24-9.27-.18-10.64a10.27,10.27,0,0,1,.49-2.61,25.66,25.66,0,0,1,.28-3c.25-1.62,0-1.95,0-1.95s1,12.63,1.19,13.73,1,12.47,1.76,14.7a43.22,43.22,0,0,0,1.73,4.12l-.25,2s-.07.73-.16,2.1.08,2.33.16,4.51.17,3.59.17,3.59-.15,1.1.18,1.51.73,1,.73,1-.46,20.92-.54,21.53-1.24.44-1.24.44"/><path class="cls-1" d="M45.9,105.92a20.77,20.77,0,0,1-.3-3,4.24,4.24,0,0,0,.11-.69s0,0-.29-.14-.36-.76-.36-.76.16-.06.2-1.11a15.35,15.35,0,0,0,0-3.3c-.18-.58-.54-1.51-.54-1.51l-.21-.66.2-1.16s0-2.23-.11-2.66.39-.23,0-.68-.61-.58-.67-.74l-.12-.34s.19-.45.33-.8a3.24,3.24,0,0,0,.25-.71c.1-.43,0-.16-.1-1.62l-.11-1.47-.45-.52.4-.32s-.11,0,0-.52a4.83,4.83,0,0,0,0-1.07l.53,3.44a3.7,3.7,0,0,0-.07.85c0,.44,0,1.37,0,1.63"/><path class="cls-1" d="M44.12,82s0-2.69.06-3.4.17-.32.07-.7,0-.27-.22-.55-.59-.43-.58-.54-.13-.14.12-.42.13-.23.17-.63-.18-.6,0-1.14-.05-.38,0-1a3.36,3.36,0,0,0-.05-1.28l-.16-.69s.41,3.1.54,3.47-.12.68,0,.82a1.54,1.54,0,0,1,0,.65,2,2,0,0,1,.18.74c0,.27-.19,1.38-.18,1.81"/><path class="cls-1" d="M43.88,71.7,43.31,71l-.09-.52s.31-.11.28-.77-.11-.82,0-1.11.13-.36.07-.95-4.08-28-4-29,.27-1.86.65-1.57A21,21,0,0,0,40.13,41"/><path class="cls-1" d="M40.76,37.51s4.82,13.55,4.85,14.17.44,1,.39,1.35.25,7.11.33,7.93-.56-7.78-1.14-8.89"/><path class="cls-1" d="M45.73,53.13S47.16,41,47.56,40.21c.35-1.39.85-9,.57-10S47.56,9.53,37.5,1c0,0,3.77,2.42,6.39,8.36s4.63,16.89,4.43,19"/><path class="cls-1" d="M37.5,1s0-2.69,3.89.83,6.43,9,7.47,11.54S44,3.15,43.26,4C43.26,4,38.54-2.15,37.5,1Z"/><path class="cls-1" d="M49.05,13.69s6.82-1.87,4.5,68.16c0,0,.79-46.56-.64-51.32s-4-17.46-4.24-17.81"/><path class="cls-1" d="M61.55,124.52s-1.77-20.08-1.85-22.26.14-4.85,0-5.36.08,11.73.28,12.62"/><path class="cls-1" d="M59.38,96.07s-1.35-23.43.36-26.8,2.7-27.46,1.9-28.22c0,0-1.34,34.62-2,35.07"/><path class="cls-1" d="M61,41.43s-6.7,38.28-6.3,44.3c0,0,1.35-15,2-15.75"/><path class="cls-1" d="M56.6,112.22s-.09,2.17-.66,1.65c0,0-.29.45.18,1.22s.78.61.77.29S57.11,112.63,56.6,112.22Z"/><path class="cls-1" d="M59.16,116.76l.62,1.86s-.17.83-.22,1a5.46,5.46,0,0,0-.13.63s.61,1,.77.7-.22-1.77-.13-1.88a19.55,19.55,0,0,0-.16-2.27"/><path class="cls-1" d="M61.88,44.08s1.63-25.33,1.59-25.9-.75-13.31-2.3-14.72c0,0,2.46,9.52,1.84,14.55"/><path class="cls-1" d="M61.17,3.18s1.7-.27,3,4.41C64.14,7.59,62.7,3,61.17,3.18Z"/><path class="cls-1" d="M64.27,7.41s6.6,49.86,7.21,51.73c0,0,2.26,17.87,3,23.62S71.65,107.2,71.34,109s-2,5-1.75,5.42.77-6.35,1.51-8.1S74.54,86,73.75,82.26"/><path class="cls-1" d="M70.52,55.91,70.3,58.1s.45.16.56.42a1,1,0,0,1-.09.68s0,2.93,0,3.14.06.13.14.31-.06.08.08.18.56.51.56.51.17,0,0,.29a1.5,1.5,0,0,0-.24.69L71,64.24s0,.51-.18.7a.78.78,0,0,0-.18.61l.09.42a2.88,2.88,0,0,1,.35.54,1.71,1.71,0,0,0,.38.5c.1.13-.16-.27.1.13s.46,0,.25.41-.35.46-.45.65-.21,0-.28.23.19-.11,0,.51-.24.44-.22.85-.09.73-.09,1.14-.21.68,0,.72-.09.29.08.17-.11,0,.37,0a.81.81,0,0,1,.77.44c0,.13-.33-.16,0,.13a1,1,0,0,0,.76.18"/><path class="cls-1" d="M71.75,72.74l-.34,1.15L71.19,75s-.2,0-.22,1a5.13,5.13,0,0,0,.14,1.51s-.15.15.22.33.5.19.71.49.36.45.53.7.2.31-.16.56S72,79.5,72,80a9.58,9.58,0,0,1-.32,1.36,4.51,4.51,0,0,0-.08,1.18.83.83,0,0,0,.25.4c.21.23.26.11.4.19s.22,0-.28,1.06-.11,3.7,0,4.34.12.76.24.88l.13.12,0,.83a3.26,3.26,0,0,0-.46,1.14,2.41,2.41,0,0,0,.35,1.23c.21.37-.1.68.2,1.23a4.52,4.52,0,0,1,.41.92c.13.38.36.39.36.39s1.43-10.1,1.09-12.05-1.25-11.67-1.44-12"/><path class="cls-1" d="M71.52,69.44s.07,20,1.08,22.83.81-5.14.81-5.14l-.16-10.28"/><path class="cls-1" d="M74.41,86.09s1.92-29.18,2-31.69,7-41.19,19.82-45.3c0,0-6.14,3.51-7,7.84,0,0-7,11.34-6.55,13.31-.94,4.92-7.78,24.66-6.67,39.61"/><path class="cls-1" d="M84.8,129.36s7.81-13.13,8.62-15.51S96.56,104,96.56,104"/><path class="cls-1" d="M97,103.18s8-23.51,6.41-37.15c-.37-8.92-.88-18.06.27-16.73,0,0-1.2,11.67-.92,13.59S103,94.32,97,103.18Z"/><path class="cls-1" d="M103.64,49.3s10.37,2.78-.27,49.3c0,0,4.56-27.78,4.48-30.91C107.78,64.85,105.55,50.78,103.64,49.3Z"/><path class="cls-1" d="M61.92,157.94s2.63-1.85,3-2.77,0-1.34.6-2,.26.46,1.46-1.8a32.47,32.47,0,0,1,1.8-3.18c1-1.7,1.11-1.38,1.23-2.8s-.21-.19.66-3a23.52,23.52,0,0,0,1.07-4.36c.38-2,7.07-21.92,6-27s3.24,1.36,3.58,2.74a23.6,23.6,0,0,1,.35,4.19l-.88,2.51.38,6.6L80,133.65,76,143,74.61,146s-2.38,8.77-2.77,9.74a20.55,20.55,0,0,1-1.58,2.75s-2.37,1.77-3.66,2.69-.6,3.82,1.05,5.37a2.86,2.86,0,0,1-2.8-1.77,60.08,60.08,0,0,0-2.62-5.57"/><path class="cls-1" d="M86.67,107.11l1.39-2.79s.08-2.07.63-2.37.66-2.06.75.09.35,3.75.25,4.26-.25,1.91-.25,1.91.33,1.76.65,2,.48,0,.4,1.16.11,1.69.05,2.53.1,1,.1,1.89a20.62,20.62,0,0,1-.15,2.19l-4.18,8.75-1.16,1.54"/><path class="cls-1" d="M86.54,103.63s1.65-8.39,1.53-10.49c0,0,1.08-16.59,1-17.29s-.22,1.21-.22,1.21-.52,18.67-.78,19"/><path class="cls-1" d="M89.17,75.53s.21-2,1.13-1.13c0,0,2.69,13.29,3.12,39.45,0,0-2.37-36.6-3.23-37.91-.24-1.47.23-1.7-.5-1.24C89.69,74.7,89.64,73.83,89.17,75.53Z"/></g></g></svg>