<svg xmlns="http://www.w3.org/2000/svg" viewBox="0 0 142.09 122.23"><defs><style>.cls-1{fill:#fff;}</style></defs><g id="레이어_2" data-name="레이어 2"><g id="레이어_1-2" data-name="레이어 1"><path class="cls-1" d="M31.37,52s9.1,8.13,35.2,8.89C66.57,60.9,42,61.55,31.37,52Z"/><path class="cls-1" d="M71.63,60.78s38.77-.86,40.18-10.16c.59-4.18-12.65-8.1-23.27-9.21,0,0,18.13,2.46,22.11,7.27S100.15,60.44,71.63,60.78Z"/><path class="cls-1" d="M83.56,38.63s-45.9-3.84-55.27,10.12C28.29,48.75,43.32,35.06,83.56,38.63Z"/><path class="cls-1" d="M83.56,38.63s24.74,1.94,31.23,11.15C114.79,49.78,113.51,41.46,83.56,38.63Z"/><path class="cls-1" d="M114.35,53.15s-11.22,7.16-32.74,8.34S100.26,62.2,114.35,53.15Z"/><path class="cls-1" d="M28.29,48.75S25.71,80,48.4,105.71c0,0-23.95-29.32-19.61-56.16"/><path class="cls-1" d="M49.28,107s18.77,11.4,42.51.27c0,0-17.13,7.44-42.54.33"/><path class="cls-1" d="M94.35,105A150.4,150.4,0,0,0,111.44,79.1"/><path class="cls-1" d="M114.79,54s16,.81,19.66,8.37c0,0-4.62-9-19.66-9"/><path class="cls-1" d="M135.07,62.68a14.67,14.67,0,0,1-5.33,16.56c-9,7.09-17.28.89-17.28.53s11,6.33,17.56-1.85S135.19,72.08,135.07,62.68Z"/><path class="cls-1" d="M122.67,61.45s-4.7.71-6.32,4.66S116.18,61.6,122.67,61.45Z"/><path class="cls-1" d="M116,67.43s-2.31,7.75,5.9,7.48C121.85,74.91,115,76.13,116,67.43Z"/><path class="cls-1" d="M122.67,61.45s6.68-1.78,7.35,3.84-5.29,9.72-7.68,10c0,0,7.25-3.38,7.51-7.9S128.19,60.88,122.67,61.45Z"/><path class="cls-1" d="M67.44,33.49s-11.65-1.83-9.68-12.22,7.1-17,1.89-21.27c0,0,3,5.85,2.34,10.3S46.61,28.52,67.44,33.49Z"/><path class="cls-1" d="M76.11,33.23s-3.66-6.47-5.93-10.39,2.29-4.55.81-7.3,0-9.64,1-9.75.61-3.47-1.37-4.63,2.48,1,1,6.3-1.82,5.88.11,8.65-5.25,1.55-.37,9.55"/><path class="cls-1" d="M29.16,72S.87,76,.25,91.27s38.61,26.42,71,25c0,0-44.88,1.45-67.41-17.62C-4.65,91.36-.23,80.06,29.16,72Z"/><path class="cls-1" d="M70.29,116.55s47.46,2.84,67-14.5c14.14-13.72-7.56-22.81-7.56-22.81s12.8,7.93,11.52,12.45S140,114.63,67.2,116.55"/><path class="cls-1" d="M21.83,109.51S46.7,119.91,51,120.78s32.57,1.41,33.79,1.45,7.38-1.49,9.53-1.4,10.74-1.59,12.31-2.11,10.76-4.92,12.46-7-12.91,9.72-30.4,9.2-38.38-.47-65.2-11.1"/></g></g></svg>