<svg xmlns="http://www.w3.org/2000/svg" viewBox="0 0 132.9 135.72"><defs><style>.cls-1{fill:#fff;}</style></defs><g id="레이어_2" data-name="레이어 2"><g id="레이어_1-2" data-name="레이어 1"><path class="cls-1" d="M60.06,55.19l-5.81,5.9h0l-2.31,3.53v-.05a6.94,6.94,0,0,0,.46,2.25,3.64,3.64,0,0,0,.57,1c.23.27.56.53.81.85A3.62,3.62,0,0,1,54.41,71l.07,2.34a11.31,11.31,0,0,0,.34,2.26c.19.75.5,1.42.76,2.21a3.15,3.15,0,0,1,.15.64v.17c0,.05,0,.05,0,.07s0,.06.05.1a2,2,0,0,0,.85.38,10.35,10.35,0,0,0,2.23.21h.17l.14.13a9.81,9.81,0,0,0,2.34,1.6,5.46,5.46,0,0,0,1.3.46,6,6,0,0,0,1.38.08l3,0h2.2a3.26,3.26,0,0,0,.59-.17,27,27,0,0,0,5-2.94,42.64,42.64,0,0,0,4.58-3.74l-.13.21a26.16,26.16,0,0,0,1.21-6.32,15.52,15.52,0,0,0-.16-3.19,12.67,12.67,0,0,0-.84-3.07l0-.07v-.08a6.21,6.21,0,0,0-.73-2.53,8.57,8.57,0,0,0-1.63-2.18,20.31,20.31,0,0,0-4.39-3.38h0c-2.33-.44-4.68-.83-7-1.24h0a5.16,5.16,0,0,0-3.29.16,4.93,4.93,0,0,0-1.43.88A6.68,6.68,0,0,0,60.06,55.19Zm-.74.37a6.52,6.52,0,0,0,1.55-1.84,6,6,0,0,1,1.72-.7c1-.45,2.8-.17,3.21-.67,2.06.35.94.46.94.46s3.88.75,6.23,1.1h0a20.39,20.39,0,0,1,4.6,3.28,9,9,0,0,1,1.8,2.23,6.76,6.76,0,0,1,.91,2.79l0-.14a13.57,13.57,0,0,1,1,3.22,16.53,16.53,0,0,1,.29,3.36,24.41,24.41,0,0,1-1.11,6.62l0,.11-.09.09A43.07,43.07,0,0,1,75.7,79.4a23.85,23.85,0,0,1-5.32,3.08,4.16,4.16,0,0,1-.86.21h-2.3l-3,0a7.56,7.56,0,0,1-1.6-.12A7.08,7.08,0,0,1,61.1,82a11,11,0,0,1-2.52-1.87l.31.13a11.27,11.27,0,0,1-2.43-.33,2.48,2.48,0,0,1-1.22-.65,1.09,1.09,0,0,1-.2-.42c0-.08,0-.18,0-.23v-.12a2.33,2.33,0,0,0-.1-.5c-.21-.71-.52-1.48-.68-2.26A12.09,12.09,0,0,1,54,73.34L54,71a3.29,3.29,0,0,0-.45-2.13c-.23-.3-.52-.55-.78-.88a3.71,3.71,0,0,1-.58-1.07,7.23,7.23,0,0,1-.39-2.34v0l0,0s2-2.73,2-3.65.36.14.36.14l1.71-1.94Z"/><path class="cls-1" d="M50,6s3-3,4-3a10.07,10.07,0,0,0,3-1h3c1,0,1,0,1-1s1-1,3-1,3,1,4,1h3c1,0,1,0,2,1S55,3,50,6Z"/><path class="cls-1" d="M75.78,3l.06,0c.25-.23,1.37-1.23,1.75-1.24a2.24,2.24,0,0,1,1.19.18c.76.26,1,.61,1.5.73a2.71,2.71,0,0,0,1.47.07c.64-.15.72-.4,1-.2a1.64,1.64,0,0,0,.69.23,7,7,0,0,1,1,.16A6.8,6.8,0,0,0,86,3.15c.61,0,1.4,0,1.4,0s.56.27,1,.46a2.81,2.81,0,0,1,.92.78,5.5,5.5,0,0,0-.76.47c-.16.15-2.3-1.05-2.3-1.05s-2.16-.33-2.56-.33a7,7,0,0,0-2-.17c-.57.17-3.18-1.18-3.79-1"/><path class="cls-1" d="M89.64,4s.45-.52,1.46.13A14.63,14.63,0,0,1,93.51,6c.32.37.33.2.58.61s.33.64.42.78-.29,0,.33.41.13.12,1.17.47a3.29,3.29,0,0,0,1.53.32,15.26,15.26,0,0,0,1.63,0,1.85,1.85,0,0,1,1.14-.21,2.32,2.32,0,0,1,1.2.63,5,5,0,0,0,.57.87,6.8,6.8,0,0,0,.83.94c.48.47-1.62-2.11-2.19-1.95s-2,.36-2.35.4a4.69,4.69,0,0,1-1.47-.13,8.47,8.47,0,0,1-2.51-1A4.72,4.72,0,0,1,93.68,7a.86.86,0,0,0-.27-.55c-.24-.27-.84-.78-1.14-1.07s-1-1.73-2.09-1.31"/><path class="cls-1" d="M103.75,11.67a7.18,7.18,0,0,1,1.46,1.66,4.7,4.7,0,0,1,.39,1.24"/><path class="cls-1" d="M108,16.46a27.66,27.66,0,0,1,2.88,2.21c1.27,1.15,1.9.54,1.84,1.2a1.93,1.93,0,0,0,.25,1.48,1.45,1.45,0,0,0,1.39.59c.65-.05,1.21-.35,1.93,0s.36.95,1.26,1.89.79.43,1.44,1.39.4-.11,1,1.92.7,2.07.91,2.9a4.86,4.86,0,0,1,.16,1.44s1.42,1.19,1.07-.2-2.37.42-3.33-4.23-2-2.42-2.41-3.08-.52-1-1.13-1.09a30.84,30.84,0,0,1-3.71-2.08s.15-1.16-.36-1.39-2-1.4-2.38-1.6"/><path class="cls-1" d="M122.91,35a9.32,9.32,0,0,1,1.34,2.46,13.45,13.45,0,0,0,.92,2.33l0,2.23a1.73,1.73,0,0,0,.56,1.28,4.1,4.1,0,0,1,1,1.17s.35-.32.81.37.14.77.48,1.52.35.69.21,1.16a1.63,1.63,0,0,0,.2,1.47,3.13,3.13,0,0,0,1.32,1.55c.76.48-.11,1.09-.59,2s-.77.48-1.27-.8a4.44,4.44,0,0,1-.22-2.37,2.76,2.76,0,0,0-.13-1.86,7,7,0,0,1-.73-2.39c-.08-.7-3-1.68-2.81-2.44a8,8,0,0,0-.49-2.65l.27-1.08s.33.28,0-.73a16.39,16.39,0,0,0-1-2.12,24.73,24.73,0,0,1-.63-3"/><path class="cls-1" d="M130.8,53.08c.21.6,2.1,4.91,2.1,4.91a26.6,26.6,0,0,0-.68,4.76,21.15,21.15,0,0,1-.59,4.3c-.29,1.66-.51,3.33-.51,3.33a14.46,14.46,0,0,0,.37,2.9,12.55,12.55,0,0,1,.18,3.25c.06.83.27,2.35-.37,2.71a5.35,5.35,0,0,1-1.38.52s-.47.82-.76-.22.11-1.31.27-2.81a16,16,0,0,1,.49-2.84c.25-1,.7-.33.29-1.8a22.57,22.57,0,0,0-.78-2.36l-.67-2.7,1-1.93.9-1.51.36-1.13.62-1.59.47-2.56s.5.6,0-.64"/><path class="cls-1" d="M49,5.74s-.2.51-1.38.6-1.44.16-2.38.16-1.62-.06-2,0-.24.42-1.31,1a5.4,5.4,0,0,1-3,.17,4,4,0,0,0-1.44,0,8.71,8.71,0,0,0-1.94.93c-1.45.74-2.23.42-2.66.81s.41,1.52,1.36.89a13.57,13.57,0,0,1,1.83-1s1.32-1,2-1a21.33,21.33,0,0,1,3.24,0,6.93,6.93,0,0,0,3-.52,4,4,0,0,0,1.58-.56C46,7,44.29,6.83,43.92,7a24,24,0,0,0,5.24-.62"/><path class="cls-1" d="M30.55,12.52c-.17.26-2.9.84-3.21,1.5s-1,.56-1.07,1.82a3.26,3.26,0,0,1-.48,2.06c-.44.86-.59.55-2.2,1.52a5.5,5.5,0,0,1-3.05.84l-1.14-.13-.78,2.41.47,1.27-1,.89s.63.52-1,.77-1.55-.19-1.91,0a5.09,5.09,0,0,1-.51.21c-.51.19-1.15.46-1.23,1a5.14,5.14,0,0,0,0,2.46c.27.33.59.43,0,1.1A11,11,0,0,0,12.1,33s-.69-.26-2,3.06-.6,2.57-1.6,3-1.78,1.29-2.57,1.59a3,3,0,0,0-1.5,1.49c-.32.56-1,1.2-.82,1.52a5.12,5.12,0,0,0,.74.87c.3.33.25.56.64-.51a12.33,12.33,0,0,1,.75-1.69s-.19-.32.75-1,1.94-.62,2.4-1.07,1.81-1.88,1.81-1.88,1.46-2.47,2.05-3.31a8.75,8.75,0,0,0,.84-2.42A12,12,0,0,0,15,30.12c.29-1.16.42-1.47,0-2s-.52-.3-.53-1"/><path class="cls-1" d="M4.89,44.87c-.13,1.58-1.65-.12-2.36,7.48s-1,4.8-1,4.8-.09,2.91.1,5.3-.22,3.44.84,5.41-3.11,1-2.41,3.65-.61,3.18.3,6.2,1.47,5.88,2.16,5.94a2.59,2.59,0,0,1,2,1.21,2.79,2.79,0,0,1,.34,1.49c-.06,2.17.83,3.2.72,4.53s-.69,2.36,0,3.7,2.49,4.48,3.19,5.79,1.49,2.9,2,3.78.53.58.75,1.66a11.17,11.17,0,0,1,0,2.77s-.37.5,1,1.87a6.93,6.93,0,0,1,1.67,2.27l2.64,1.63s1.84-.13,1-1.37a22.74,22.74,0,0,0-2.47-2.79s0,.26-1-1.34-1.75-3.06-1.75-3.06l-2.19-5.24L9.23,96.29,6.54,92.81a8.09,8.09,0,0,0-2.41-1.93,2.88,2.88,0,0,1-1.4-2.32S4.58,82,3.87,81.42A5.24,5.24,0,0,1,2.73,80L1.83,78s-.37-.5.16-2.45-.09-1.13.74-3a27.06,27.06,0,0,0,1.4-4.11C5,65.73,6,65.86,4.85,64.21s-2-1.75-2.12-2.8-.9-1.24-.6-2.53S5.51,48.26,5.51,48.26"/><path class="cls-1" d="M17.76,116a7.26,7.26,0,0,0,3.8,3.56A20.35,20.35,0,0,1,27,123.33c.57.53,2.35,2.3,2.35,2.3l3.32,2.26s3.47,1.25,4.93,1.83a34.53,34.53,0,0,0,5.76,1.05s.32,1.46,5.67,2.6a59.2,59.2,0,0,0,7.71,1.28s3.77,1.74,5.79.79,2.1-1.5,3.59-1.49-8.75-.48-9.92-.47a12.74,12.74,0,0,1-5-.82c-1.38-.7-3.81-1.88-3.81-1.88l-3.9-2a16.86,16.86,0,0,0-5.25-1.31c-3.33-.36-3.58,0-4.69-.82s-3-2.66-3-2.66l-2.77-2.2A3.7,3.7,0,0,0,24.56,119a30.61,30.61,0,0,1-4.43-.79"/><path class="cls-1" d="M68.5,134.65c1-.1-.46,1.83,5.48,0s10.34-3.37,10.34-3.37l4.53-.49,2.51-1.39s2.66-2.32,4.06-2.71,4.21-.27,5.84-1.37c4.82-3.27-2.31-1-3.87,0s-6.06.93-6.06.93A33.16,33.16,0,0,1,89,128.81c-.69.56,0,.34-2.57,1a36.49,36.49,0,0,0-4.66,1.34c-.86.36-8.4,3.06-8.4,3.06"/><path class="cls-1" d="M103.91,124.15c.44-.27,2.34,0,2.89-1s1.09-.69,1.43-2.72a4.84,4.84,0,0,1,1.56-3.23c.61-.58,2.95-2.44,2.95-2.44l2.76-1.44,2.06-2.83.88-2.07a16.59,16.59,0,0,0,1.74-2.86,5,5,0,0,1,2.18-2.46c.54-.2,1.79-.16,2.19-1.43S126,97.77,126,97.77a4.06,4.06,0,0,1,1.64-1.93l2-1.18V92.5a9.44,9.44,0,0,1,0-3.54,17.35,17.35,0,0,1,1.08-3.77c.55-1.33.71-1.21,1-2.15a2.74,2.74,0,0,0-.16-1.86,27.48,27.48,0,0,0-1.68,2.47c-.17.44,0,1.81-.25,2.42s-.2,6.09-.79,7.74-3.09,1.79-3.74,2.57-.63,2-1.18,3.29a19.4,19.4,0,0,1-1.1,2.63c-.5.84-7.83,6.67-7.52,9.74s-9.91,5.93-9.81,9.84"/><path class="cls-1" d="M8.49,51.22c-.32.25-1.62-.91-1.38,1.23s.16,1.8.16,1.8A7.31,7.31,0,0,0,7.21,56a.88.88,0,0,0,1.58.19,19.87,19.87,0,0,0,1.43-2l-.4-2.41-.16-1.16"/><path class="cls-1" d="M33.54,23.52c.27.54,4.77,3.54,4.77,3.54l2.55,3.19A15.69,15.69,0,0,1,43,33.5c.66,1.54,2.23,4.56,2.23,4.56s-2.79-5.23-3.41-5.94S38.31,27.49,38,27.29"/><path class="cls-1" d="M90.13,89.85s.42,2.55.88,4.73a32.91,32.91,0,0,0,1.13,4s.68,1.27,1.42,2.41,1.32,2.09,1.91,3.21a14.35,14.35,0,0,0,2.23,3.45,13.51,13.51,0,0,0,2.38,1.9,3,3,0,0,0,1-1.82c.19-1.18-.67,2.61-1.33,1.12s-1.62.35-2.89-2.46-4-6.12-4.38-8.22-1.7-3.8-1.52-4.48"/><path class="cls-1" d="M29.09,123.74a11.93,11.93,0,0,1,1.38-1.11,1.21,1.21,0,0,0,.53-1.25l-.37-1.17a3.64,3.64,0,0,1,1.75,1.39,14.48,14.48,0,0,0,3.18,2.56,13.36,13.36,0,0,0,1.69,2.24c1,1.1,1.38.23,1.85.84a9,9,0,0,0,1.79,1.43l-3,.22-5.76-1.74"/><path class="cls-1" d="M95.93,8.54a12.08,12.08,0,0,1,2.29,2c.18.48.69,1.57.69,1.57A4.76,4.76,0,0,0,99,13.21a2.28,2.28,0,0,0,.63.49,3.39,3.39,0,0,1,.88-.29,1.9,1.9,0,0,0,1.16-.43c.54-.4.35-.77,0-.88s-.59-.08-.77-.59-.9-.38-.69-.88.38-.51.74-.81a1.63,1.63,0,0,1,.72-.34s-.15-.61-.41-.68"/><path class="cls-1" d="M10.64,62.43a16.93,16.93,0,0,0,2.81,1.35,6.24,6.24,0,0,1,2.63.08,3.25,3.25,0,0,0,2.59-.65l1.59-.43a13.73,13.73,0,0,1-8.32.23"/><path class="cls-1" d="M51.87,121.16l-1.14.72s-1.41.14-1.84.12-.6-1.52-.45-2.34c0,0-.11,1.89.39,2.16a3.45,3.45,0,0,0,1.73,0"/><path class="cls-1" d="M122.56,47.51l-.82,1.1s-2.56,1.76-3,1.92"/><path class="cls-1" d="M79,11a8.8,8.8,0,0,1-.32,1.76c-.22.51-.62,1.54-.87,2.08"/><path class="cls-1" d="M92.75,8.54a5.62,5.62,0,0,1,0,2.1,7.28,7.28,0,0,0-.68,1.74"/></g></g></svg>